<svg xmlns="http://www.w3.org/2000/svg" viewBox="0 0 200 64" width="200" height="64" role="img" aria-label="공명 로고">
  <g>
    <circle cx="32" cy="32" r="26" fill="none" stroke="#2f6f4f" stroke-width="3" opacity="0.45"/>
    <circle cx="32" cy="32" r="17" fill="none" stroke="#2f6f4f" stroke-width="3.5" opacity="0.8"/>
    <circle cx="32" cy="32" r="6.5" fill="#1f4d36"/>
  </g>
  <!-- wordmark: Noto Sans KR Bold (OFL) outlined to path -->
  <g role="img" aria-label="공명" fill="#202225">
    <path transform="translate(70.000,42.000) scale(0.030000,-0.030000)" d="M454 261Q554 261 628.0 240.0Q702 219 742.5 180.0Q783 141 783 86Q783 32 742.5 -7.5Q702 -47 628.0 -68.0Q554 -89 454 -89Q355 -89 281.0 -68.0Q207 -47 166.5 -7.5Q126 32 126 86Q126 141 166.5 180.0Q207 219 281.0 240.0Q355 261 454 261ZM454 161Q392 161 348.0 153.0Q304 145 281.5 128.0Q259 111 259 86Q259 61 281.5 44.5Q304 28 348.0 19.5Q392 11 454 11Q517 11 561.0 19.5Q605 28 628.0 44.5Q651 61 651 86Q651 111 628.0 128.0Q605 145 561.0 153.0Q517 161 454 161ZM136 796H723V692H136ZM43 424H876V319H43ZM351 586H484V398H351ZM645 796H778V720Q778 665 775.0 605.0Q772 545 752 473L620 486Q639 557 642.0 612.0Q645 667 645 720Z"/>
    <path transform="translate(97.600,42.000) scale(0.030000,-0.030000)" d="M488 704H724V598H488ZM488 519H728V413H488ZM682 837H816V295H682ZM78 771H516V345H78ZM386 666H209V449H386ZM502 271Q649 271 734.0 223.5Q819 176 819 92Q819 6 734.0 -41.5Q649 -89 502 -89Q355 -89 270.0 -41.5Q185 6 185 92Q185 176 270.0 223.5Q355 271 502 271ZM502 169Q442 169 401.0 161.0Q360 153 338.5 135.5Q317 118 317 91Q317 65 338.5 47.5Q360 30 401.0 21.5Q442 13 502 13Q562 13 603.0 21.5Q644 30 665.0 47.5Q686 65 686 91Q686 118 665.0 135.5Q644 153 603.0 161.0Q562 169 502 169Z"/>
  </g>
</svg>
